name C:\Users\antoi\Documents\MyRepositories\upper-imu-dc\Results\main_tracking\Case_71\SHRUG01_orientations_groundFrame.mot
datacolumns 13
datarows 18
range 2.21000000 2.38000000
endheader 
time	radius_imu_[0][0]	radius_imu_[0][1]	radius_imu_[0][2]	radius_imu_[1][0]	radius_imu_[1][1]	radius_imu_[1][2]	radius_imu_[2][0]	radius_imu_[2][1]	radius_imu_[2][2]	radius_imu_x	radius_imu_y	radius_imu_z	
          2.21000000	          0.58348680	         -0.12979170	          0.80168402	         -0.19903186	          0.93418860	          0.29610468	         -0.78735600	         -0.33233384	          0.51925403	         -0.51825731	          0.93010719	          0.21887793	
          2.22000000	          0.58608837	         -0.12862435	          0.79997262	         -0.19827441	          0.93453386	          0.29552279	         -0.78561293	         -0.33181657	          0.52221651	         -0.51496917	          0.92724959	          0.21603745	
          2.23000000	          0.58766785	         -0.12759952	          0.79897738	         -0.19786154	          0.93484032	          0.29482943	         -0.78453637	         -0.33134867	          0.52412856	         -0.51239976	          0.92559279	          0.21380986	
          2.24000000	          0.58821984	         -0.12669668	          0.79871482	         -0.19779497	          0.93511528	          0.29400096	         -0.78413938	         -0.33091897	          0.52499339	         -0.51049508	          0.92515631	          0.21214892	
          2.25000000	          0.58775952	         -0.12589302	          0.79918064	         -0.19806959	          0.93536603	          0.29301678	         -0.78441519	         -0.33051678	          0.52483471	         -0.50919550	          0.92593086	          0.21100313	
          2.26000000	          0.58632373	         -0.12516476	          0.80034884	         -0.19867239	          0.93559957	          0.29186078	         -0.78533672	         -0.33013212	          0.52369745	         -0.50843665	          0.92787684	          0.21031695	
          2.27000000	          0.58397145	         -0.12448853	          0.80217202	         -0.19958176	          0.93582245	          0.29052274	         -0.78685734	         -0.32975589	          0.52164795	         -0.50815015	          0.93092404	          0.21003183	
          2.28000000	          0.58078299	         -0.12384253	          0.80458322	         -0.20076733	          0.93604057	          0.28899917	         -0.78891292	         -0.32937983	          0.51877291	         -0.50826436	          0.93497329	          0.21008733	
          2.29000000	          0.57685794	         -0.12320758	          0.80749911	         -0.20219062	          0.93625917	          0.28729380	         -0.79142522	         -0.32899645	          0.51517711	         -0.50870537	          0.93989999	          0.21042225	
          2.30000000	          0.57231144	         -0.12256797	          0.81082471	         -0.20380648	          0.93648266	          0.28541749	         -0.79430633	         -0.32859902	          0.51097959	         -0.50939848	          0.94555981	          0.21097606	
          2.31000000	          0.56726908	         -0.12191196	          0.81445888	         -0.20556528	          0.93671468	          0.28338760	         -0.79746392	         -0.32818149	          0.50630841	         -0.51027011	          0.95179598	          0.21169040	
          2.32000000	          0.56186088	         -0.12123198	          0.81830017	         -0.20741556	          0.93695798	          0.28122683	         -0.80080656	         -0.32773854	          0.50129463	         -0.51125009	          0.95844746	          0.21251077	
          2.33000000	          0.55621487	         -0.12052457	          0.82225230	         -0.20930678	          0.93721450	          0.27896173	         -0.80424852	         -0.32726564	          0.49606604	         -0.51227396	          0.96535727	          0.21338813	
          2.34000000	          0.55045099	         -0.11978987	          0.82622884	         -0.21119197	          0.93748540	          0.27662080	         -0.80771385	         -0.32675909	          0.49074111	         -0.51328516	          0.97238009	          0.21428031	
          2.35000000	          0.54467563	         -0.11903101	          0.83015666	         -0.21302990	          0.93777115	          0.27423263	         -0.81113915	         -0.32621602	          0.48542393	         -0.51423674	          0.97938861	          0.21515307	
          2.36000000	          0.53897761	         -0.11825327	          0.83397800	         -0.21478663	          0.93807165	          0.27182398	         -0.81447520	         -0.32563436	          0.48020039	         -0.51509244	          0.98627806	          0.21598073	
          2.37000000	          0.53342598	         -0.11746319	          0.83765096	         -0.21643611	          0.93838648	          0.26941832	         -0.81768706	         -0.32501265	          0.47513645	         -0.51582669	          0.99296828	          0.21674605	
          2.38000000	          0.52807000	         -0.11666773	          0.84114845	         -0.21796001	          0.93871500	          0.26703478	         -0.82075301	         -0.32434978	          0.47027833	         -0.51642373	          0.99940333	          0.21743941	
